<?xml version="1.0" standalone="no"?>
<!DOCTYPE svg PUBLIC "-//W3C//DTD SVG 20010904//EN"
 "http://www.w3.org/TR/2001/REC-SVG-20010904/DTD/svg10.dtd">
<svg version="1.0" xmlns="http://www.w3.org/2000/svg"
 width="1024.000000pt" height="1024.000000pt" viewBox="0 0 1024.000000 1024.000000"
 preserveAspectRatio="xMidYMid meet">

<g transform="translate(0.000000,1024.000000) scale(0.100000,-0.100000)"
fill="currentColor" stroke="none">
<path d="M1383 10157 c3 -7 148 -202 322 -433 174 -230 402 -532 507 -671
l190 -251 -37 -129 c-20 -70 -45 -157 -55 -193 -11 -36 -44 -155 -75 -265 -50
-177 -142 -502 -294 -1040 -27 -93 -92 -325 -146 -515 -53 -190 -116 -412
-140 -495 -23 -82 -59 -211 -79 -285 -21 -74 -41 -146 -46 -160 -5 -14 -39
-133 -75 -265 -37 -132 -79 -283 -95 -335 -37 -128 -80 -283 -80 -293 0 -4
325 -6 723 -5 l722 3 82 290 c46 160 89 313 97 340 9 28 63 219 121 425 58
206 112 398 121 425 8 28 42 149 77 270 l62 220 966 3 966 2 17 63 c10 34 30
105 46 157 15 52 85 298 155 545 70 248 137 486 150 530 13 44 21 83 18 88 -2
4 -436 7 -964 7 -910 0 -960 1 -956 18 3 9 14 49 26 87 11 39 45 160 76 270
31 110 58 201 59 203 2 1 626 2 1388 2 761 0 1387 3 1391 6 5 5 -331 456 -894
1199 l-144 190 -2104 3 c-1729 2 -2102 0 -2098 -11z"/>
<path d="M3710 5414 c0 -5 118 -162 829 -1103 118 -156 190 -260 187 -270 -4
-15 -94 -331 -201 -711 -24 -85 -73 -261 -110 -390 -36 -129 -72 -255 -79
-280 -8 -25 -44 -153 -81 -285 -37 -132 -79 -283 -95 -335 -15 -52 -49 -171
-75 -265 -26 -93 -62 -222 -80 -285 -18 -63 -35 -124 -38 -135 -3 -11 -16 -58
-30 -105 -13 -47 -27 -94 -30 -105 -2 -11 -35 -126 -72 -255 -37 -129 -86
-305 -110 -390 -24 -85 -59 -211 -79 -280 -20 -69 -36 -128 -36 -133 0 -4 685
-6 1523 -5 1645 4 1545 1 1736 54 524 147 950 495 1191 974 72 144 150 390
320 1021 6 20 15 84 21 141 31 297 -72 597 -283 823 -161 172 -357 282 -591
329 -57 12 -220 16 -789 22 -654 6 -718 8 -718 23 0 24 149 544 158 553 4 4
632 9 1395 10 l1388 3 -212 280 c-116 154 -351 466 -523 692 l-311 413 -2102
0 c-1157 0 -2103 -3 -2103 -6z m3190 -3382 c0 -9 -5 -33 -11 -52 -13 -44 -56
-195 -104 -365 -20 -71 -40 -133 -44 -138 -4 -4 -295 -6 -648 -5 l-641 3 75
265 c40 146 78 275 83 288 l10 22 640 0 c604 0 640 -1 640 -18z"/>
</g>
</svg>
